<?xml version="1.0" encoding="UTF-8" standalone="no"?>
<!-- Created with Inkscape (http://www.inkscape.org/) -->

<svg
   xmlns:dc="http://purl.org/dc/elements/1.1/"
   xmlns:cc="http://creativecommons.org/ns#"
   xmlns:rdf="http://www.w3.org/1999/02/22-rdf-syntax-ns#"
   xmlns:svg="http://www.w3.org/2000/svg"
   xmlns="http://www.w3.org/2000/svg"
   xmlns:sodipodi="http://sodipodi.sourceforge.net/DTD/sodipodi-0.dtd"
   xmlns:inkscape="http://www.inkscape.org/namespaces/inkscape"
   width="182.73613"
   height="38.7948"
   viewBox="0 0 48.348934 10.264457"
   version="1.1"
   id="svg5302"
   inkscape:version="0.92.0 r15299"
   sodipodi:docname="ConvaTec.svg">
  <defs
     id="defs5296">
    <clipPath
       id="clipPath5322"
       clipPathUnits="userSpaceOnUse">
      <path
         inkscape:connector-curvature="0"
         id="path5320"
         d="M 0,0 H 1684.91 V 605.48 H 0 Z" />
    </clipPath>
  </defs>
  <sodipodi:namedview
     id="base"
     pagecolor="#ffffff"
     bordercolor="#666666"
     borderopacity="1.0"
     inkscape:pageopacity="0.0"
     inkscape:pageshadow="2"
     inkscape:zoom="4.4129915"
     inkscape:cx="90.868065"
     inkscape:cy="18.8974"
     inkscape:document-units="mm"
     inkscape:current-layer="layer1"
     showgrid="false"
     fit-margin-top="0"
     fit-margin-left="0"
     fit-margin-right="0"
     fit-margin-bottom="0"
     units="px"
     inkscape:window-width="1280"
     inkscape:window-height="744"
     inkscape:window-x="-4"
     inkscape:window-y="-4"
     inkscape:window-maximized="1" />
  <metadata
     id="metadata5299">
    <rdf:RDF>
      <cc:Work
         rdf:about="">
        <dc:format>image/svg+xml</dc:format>
        <dc:type
           rdf:resource="http://purl.org/dc/dcmitype/StillImage" />
        <dc:title></dc:title>
      </cc:Work>
    </rdf:RDF>
  </metadata>
  <g
     inkscape:label="Layer 1"
     inkscape:groupmode="layer"
     id="layer1"
     transform="translate(47.4767,-143.56881)">
    <g
       transform="matrix(0.35277777,0,0,-0.35277777,-53.023037,159.3825)"
       inkscape:label="ink_ext_XXXXXX"
       id="g5312">
      <g
         transform="scale(0.1)"
         id="g5314">
        <g
           id="g5316">
          <g
             clip-path="url(#clipPath5322)"
             id="g5318">
            <path
               inkscape:connector-curvature="0"
               id="path5324"
               style="fill:#18739f;fill-opacity:1;fill-rule:nonzero;stroke:none"
               d="m 1505.59,261.148 c -7.59,-6.207 -14.95,-10.117 -25.99,-10.117 -16.55,0 -29.66,13.567 -29.66,38.176 0,23.449 13.33,36.328 29.66,36.328 10.35,0 18.62,-4.137 25.75,-9.66 l 17.02,21.848 c -13.56,10.578 -28.74,15.175 -43.69,15.175 -36.1,0 -62.77,-24.14 -62.77,-63.691 0,-41.164 26.9,-65.312 62.77,-65.312 17.48,0 31.73,5.75 45.31,17.707 z m -188.6,40.012 c 3.23,17.938 14.04,27.598 27.84,27.598 16.09,0 22.07,-11.961 22.07,-27.598 z m 26.91,51.973 c -34.26,0 -61.86,-24.375 -61.86,-63.926 0,-41.394 25.75,-65.539 62.09,-65.539 18.4,0 35.65,5.52 50.82,16.094 l -14.03,21.386 c -10.34,-6.437 -21.85,-10.574 -34.26,-10.574 -18.62,0 -28.51,10.348 -30.35,31.27 h 81.4 c 0.69,3.679 1.15,10.121 1.15,14.949 0,33.109 -19.54,56.34 -54.96,56.34 z m -45.23,34.492 h -141.19 v -30.816 h 53.13 V 226.656 h 34.71 v 130.153 h 53.35 z M 1125.29,258.391 c -5.29,-5.981 -13.1,-10.348 -23.46,-10.348 -8.5,0 -14.25,5.059 -14.25,12.418 0,15.633 18.62,20.465 37.71,21.617 z m 33.58,0.457 v 51.511 c 0,25.293 -13.8,42.539 -49.21,42.539 -16.79,0 -36.11,-5.75 -52.67,-14.023 l 11.96,-24.836 c 15.18,7.359 27.59,12.188 39.32,12.188 11.73,0 17.02,-5.524 17.02,-14.715 V 300.699 C 1079.53,297.48 1054,283.453 1054,256.551 c 0,-19.547 15.18,-32.656 36.8,-32.656 16.55,0 28.06,6.21 38.4,17.25 6.9,-11.723 16.56,-15.18 39.78,-15.18 v 23.226 c -6.21,0 -10.11,2.989 -10.11,9.657 z m -170.972,4.371 h -0.457 l -26.211,86.918 h -33.339 l 40.925,-123.481 h 36.104 l 41.16,123.481 h -31.96 z m -113.386,89.914 c -15.41,0 -28.516,-7.824 -37.481,-17.246 l -1.609,14.25 H 803.68 V 226.656 h 33.578 v 86.692 c 7.359,9.199 16.328,14.488 26.676,14.488 11.496,0 16.093,-7.59 16.093,-18.625 v -82.555 h 33.801 v 81.633 c 0,27.824 -11.73,44.844 -39.316,44.844 z M 721.555,249.191 c -18.168,0 -28.285,15.868 -28.285,40.243 0,22.765 11.273,37.941 28.285,37.941 16.558,0 27.593,-15.176 27.593,-37.941 0,-24.375 -10.117,-40.243 -27.593,-40.243 z m 0,103.707 c -35.637,0 -62.317,-25.062 -62.317,-63.234 0,-40.703 25.067,-65.769 62.317,-65.769 36.793,0 61.629,25.066 61.629,65.769 0,38.172 -26.446,63.234 -61.629,63.234 z M 593.457,250.566 c -30.363,0 -49.445,21.618 -49.445,54.731 0,31.961 19.551,52.887 49.445,52.887 15.637,0 27.59,-5.981 38.856,-14.946 l 18.859,23.91 c -16.785,13.34 -36.106,20.469 -58.41,20.469 -49.207,0 -83.934,-34.719 -83.934,-82.32 0,-48.981 33.574,-84.168 82.781,-84.168 25.071,0 45.071,8.051 62.325,24.152 l -20.704,22.074 c -10.8,-10.582 -23.679,-16.789 -39.773,-16.789" />
            <path
               inkscape:connector-curvature="0"
               id="path5326"
               style="fill:#18739f;fill-opacity:1;fill-rule:nonzero;stroke:none"
               d="m 374.73,368.602 c 0,-3.129 -2.539,-5.668 -5.667,-5.668 H 236.336 c -3.129,0 -5.668,2.539 -5.668,5.668 v 0.656 c 0,1 0.641,1.887 1.59,2.203 l 68.664,22.863 c 1.152,0.383 2.402,0.383 3.555,0 l 68.703,-22.875 c 0.925,-0.308 1.55,-1.176 1.55,-2.148 z M 342.734,255.887 v 94.047 c 0,3.132 2.539,5.668 5.668,5.668 h 12.661 c 3.132,0 5.671,-2.536 5.671,-5.668 v -94.047 c 0,-3.133 -2.539,-5.668 -5.671,-5.668 h -12.661 c -3.129,0 -5.668,2.535 -5.668,5.668 z m -51.625,0 v 94.047 c 0,3.132 2.539,5.668 5.668,5.668 h 12.664 c 3.129,0 5.668,-2.536 5.668,-5.668 v -94.047 c 0,-3.133 -2.539,-5.668 -5.668,-5.668 h -12.664 c -3.129,0 -5.668,2.535 -5.668,5.668 z m -52.445,0 v 94.047 c 0,3.132 2.535,5.668 5.668,5.668 h 12.66 c 3.133,0 5.672,-2.536 5.672,-5.668 v -94.047 c 0,-3.133 -2.539,-5.668 -5.672,-5.668 h -12.66 c -3.133,0 -5.668,2.535 -5.668,5.668 z M 370.73,232.32 c 0,-3.132 -2.539,-5.668 -5.667,-5.668 H 240.336 c -3.129,0 -5.668,2.536 -5.668,5.668 v 4.66 c 0,3.133 2.539,5.672 5.668,5.672 h 124.727 c 3.128,0 5.667,-2.539 5.667,-5.672 z m -68.031,212.192 c -78.277,0 -141.73,-63.453 -141.73,-141.731 0,-78.277 63.453,-141.73 141.73,-141.73 78.278,0 141.731,63.453 141.731,141.73 0,78.278 -63.453,141.731 -141.731,141.731" />
          </g>
        </g>
      </g>
    </g>
  </g>
</svg>
