<svg xmlns="http://www.w3.org/2000/svg" viewBox="0 0 271.71 271.71"><defs><style>.cls-1{fill:#fff;}</style></defs><title>D55_logo_white</title><g id="Layer_2" data-name="Layer 2"><g id="Layer_1-2" data-name="Layer 1"><polygon class="cls-1" points="102.47 160.1 271.71 160.1 271.71 0 0 0 0 271.71 102.47 271.71 102.47 160.1"/><path class="cls-1" d="M119.13,176.58h22.18c14.52,0,21.65,8,21.65,22.84v46.74c0,14.78-7.13,22.84-21.65,22.84H119.13Zm21.92,79.21c4.62,0,7.39-2.37,7.39-9V198.76c0-6.6-2.77-9-7.39-9h-7.4v66Z"/><path class="cls-1" d="M172.33,247.08v-7.26h13.73v8.32c0,6.6,2.91,9,7.53,9s7.52-2.37,7.52-9V227.41c0-6.6-2.9-9.11-7.52-9.11s-7.53,2.51-7.53,9.11v.79H172.33L175,176.58h38.29v13.2H187.91l-1.19,22.05H187c2.64-4.36,6.73-6.73,12.54-6.73,10.69,0,16.11,7.52,16.11,21.12v20.86c0,14.79-7.4,23.24-21.65,23.24S172.33,261.87,172.33,247.08Z"/><path class="cls-1" d="M225.14,247.08v-7.26h13.73v8.32c0,6.6,2.91,9,7.53,9s7.52-2.37,7.52-9V227.41c0-6.6-2.9-9.11-7.52-9.11s-7.53,2.51-7.53,9.11v.79H225.14l2.64-51.62h38.29v13.2H240.72l-1.19,22.05h.27c2.64-4.36,6.73-6.73,12.54-6.73,10.69,0,16.1,7.52,16.1,21.12v20.86c0,14.79-7.39,23.24-21.65,23.24S225.14,261.87,225.14,247.08Z"/></g></g></svg>