<svg data-name="Group 3" xmlns="http://www.w3.org/2000/svg" width="240" height="48"><defs><clipPath id="a"><path data-name="Rectangle 2" fill="#f088b6" d="M0 0h240v48H0z"/></clipPath></defs><path data-name="Path 1" d="M61.737 18.365v3.607h8.7v4.188h-8.7v3.432h9.942v4.273H56.867V14.089h14.811v4.276z" fill="#f088b6"/><path data-name="Path 2" d="M92.137 14.089v19.776H87.3v-7.416h-7.986v7.416h-4.87V14.089h4.87v7.94H87.3v-7.94z" fill="#f088b6"/><path data-name="Path 3" d="M100.465 18.365v3.607h8.7v4.188h-8.7v3.432h9.941v4.273H95.595V14.089h14.81v4.276z" fill="#f088b6"/><g data-name="Group 2"><g data-name="Group 1" clip-path="url(#a)" fill="#f088b6"><path data-name="Path 4" d="M134.61 25.663h5.013a9.468 9.468 0 01-9.826 8.579 10.032 10.032 0 01-10.373-10.266 10.032 10.032 0 0110.374-10.266 9.468 9.468 0 019.826 8.579h-5.014a4.667 4.667 0 00-4.842-3.984 5.332 5.332 0 00-5.417 5.671 5.331 5.331 0 005.417 5.67 4.667 4.667 0 004.842-3.984"/><path data-name="Path 5" d="M153.354 30.465h-8.3l-1.3 3.4h-5.187l8.327-19.776h4.669l8.3 19.776h-5.184zm-1.585-4.1l-2.565-6.66-2.565 6.66z"/><path data-name="Path 6" d="M178.315 21.33c0 4.624-3.343 7.5-8.674 7.5h-2.65v5.035h-4.87V14.089h7.9c5.129 0 8.3 2.792 8.3 7.241m-4.841 0c0-1.774-1.412-2.937-3.544-2.937h-2.945v6.136h2.939c2.132 0 3.544-1.25 3.544-3.2"/><path data-name="Rectangle 1" d="M180.333 14.089h4.871v19.776h-4.871z"/><path data-name="Path 7" d="M204.74 18.481h-6.253v15.384h-4.841V18.481h-6.252v-4.392h17.346z"/><path data-name="Path 8" d="M216.459 30.465h-8.3l-1.3 3.4h-5.187L210 14.089h4.669l8.3 19.776h-5.187zm-1.585-4.1l-2.565-6.66-2.564 6.66z"/><path data-name="Path 9" d="M239.597 29.474v4.391h-14.55V14.089h4.87v15.385z"/><path data-name="Path 10" d="M24.028 29.101l-4.806-4.85-4.806 4.85-4.806-4.85 6.008-6.063-4.807-4.85L0 24.251l24.028 24.251L34.84 37.588l-4.806-4.85-6.006 6.063-4.806-4.85z"/><path data-name="Path 11" d="M24.028 0L13.216 10.913l4.806 4.85L24.028 9.7l4.806 4.85-4.806 4.85 4.806 4.85 4.806-4.85 4.806 4.85-6.007 6.063 4.806 4.85 10.811-10.912z"/></g></g></svg>