<svg width="4485" height="508" viewBox="0 0 4485 508" fill="none" xmlns="http://www.w3.org/2000/svg">
<path d="M993.802 382.009C990.205 382.009 987.507 380.75 985.709 378.232C983.91 375.714 983.011 372.476 983.011 368.52C983.011 362.405 985.169 357.728 989.485 354.491C993.802 351.254 999.737 349.635 1007.29 349.635H1020.78V39.3879H993.802C990.205 39.3879 987.507 38.1289 985.709 35.611C983.91 33.093 983.011 29.6758 983.011 25.3593C983.011 19.604 985.169 15.1077 989.485 11.8703C993.802 8.63294 999.737 7.01426 1007.29 7.01426H1109.27C1114.3 7.01426 1116.82 9.71207 1116.82 15.1077C1116.82 19.4242 1115.56 23.0212 1113.04 25.8989C1110.53 28.4168 1106.21 30.3952 1100.1 31.834L1074.74 38.8483V350.175L1100.1 357.189C1111.61 360.067 1117.36 365.642 1117.36 373.915C1117.36 379.311 1114.84 382.009 1109.81 382.009H993.802ZM1074.74 192.083L1232.29 39.3879H1197.76C1194.16 39.3879 1191.46 38.1289 1189.66 35.611C1187.86 33.093 1186.96 29.6758 1186.96 25.3593C1186.96 19.604 1189.12 15.1077 1193.44 11.8703C1197.76 8.63294 1203.69 7.01426 1211.24 7.01426H1312.14C1317.9 7.01426 1320.78 10.4315 1320.78 17.2659C1320.78 21.2227 1319.16 24.8198 1315.92 28.0571C1312.68 30.9348 1308.19 33.093 1302.43 34.5318L1282.47 38.8483L1133.01 184.53L1285.7 350.714L1312.14 357.728C1324.37 360.966 1330.49 366.361 1330.49 373.915C1330.49 379.311 1327.97 382.009 1322.93 382.009H1240.38L1074.74 192.083Z" fill="black"/>
<path d="M1368.83 382.009C1365.59 382.009 1363.07 380.93 1361.27 378.771C1359.47 376.253 1358.57 373.016 1358.57 369.059C1358.57 363.304 1360.55 358.987 1364.51 356.11C1368.83 353.232 1374.58 351.793 1381.78 351.793H1395.26V147.84H1368.83C1361.99 147.84 1358.57 143.703 1358.57 135.43C1358.57 129.315 1360.55 124.818 1364.51 121.941C1368.83 119.063 1374.58 117.624 1381.78 117.624H1442.75V153.775H1444.9C1475.12 126.077 1506.05 112.229 1537.71 112.229C1563.25 112.229 1584.29 119.782 1600.84 134.89C1617.74 149.638 1626.2 169.782 1626.2 195.321V351.793L1650.48 358.808C1656.23 360.606 1660.37 362.764 1662.89 365.282C1665.4 367.441 1666.66 370.498 1666.66 374.455C1666.66 379.491 1664.33 382.009 1659.65 382.009H1549.58C1546.34 382.009 1543.82 380.93 1542.02 378.771C1540.23 376.253 1539.33 373.016 1539.33 369.059C1539.33 363.304 1541.31 358.987 1545.26 356.11C1549.58 353.232 1555.33 351.793 1562.53 351.793H1576.02V199.637C1576.02 183.45 1571.34 170.501 1561.99 160.789C1552.64 151.077 1539.33 146.221 1522.06 146.221C1508.75 146.221 1495.44 149.818 1482.13 157.012C1468.82 164.206 1456.59 173.918 1445.44 186.148V351.793L1469.72 358.808C1475.48 360.246 1479.62 362.225 1482.13 364.743C1484.65 367.261 1485.91 370.498 1485.91 374.455C1485.91 379.491 1483.57 382.009 1478.9 382.009H1368.83Z" fill="black"/>
<path d="M1825.69 389.023C1800.51 389.023 1778.21 383.627 1758.79 372.836C1739.36 362.045 1724.26 346.218 1713.47 325.355C1702.67 304.492 1697.28 279.492 1697.28 250.356C1697.28 221.22 1702.67 196.4 1713.47 175.897C1724.26 155.034 1739.36 139.207 1758.79 128.415C1778.21 117.624 1800.51 112.229 1825.69 112.229C1850.87 112.229 1873.18 117.624 1892.6 128.415C1912.02 139.207 1927.13 155.034 1937.92 175.897C1948.71 196.4 1954.11 221.22 1954.11 250.356C1954.11 279.492 1948.71 304.492 1937.92 325.355C1927.13 346.218 1912.02 362.045 1892.6 372.836C1873.18 383.627 1850.87 389.023 1825.69 389.023ZM1825.69 356.649C1850.15 356.649 1869.04 347.477 1882.35 329.132C1896.02 310.427 1902.85 284.168 1902.85 250.356C1902.85 216.544 1896.02 190.465 1882.35 172.12C1869.04 153.775 1850.15 144.602 1825.69 144.602C1800.87 144.602 1781.63 153.775 1767.96 172.12C1754.65 190.465 1748 216.544 1748 250.356C1748 284.168 1754.83 310.427 1768.5 329.132C1782.17 347.477 1801.23 356.649 1825.69 356.649Z" fill="black"/>
<path d="M2001.61 147.84H1980.03C1973.2 147.84 1969.78 143.703 1969.78 135.43C1969.78 129.315 1971.76 124.818 1975.71 121.941C1980.03 119.063 1985.78 117.624 1992.98 117.624H2090.1C2094.78 117.624 2097.11 120.142 2097.11 125.178C2097.11 132.732 2091.72 137.948 2080.93 140.825L2051.79 148.379L2106.29 330.75C2107.73 335.786 2108.8 341.002 2109.52 346.398C2110.24 351.434 2110.6 354.671 2110.6 356.11H2112.76C2112.76 354.671 2113.12 351.434 2113.84 346.398C2114.56 341.002 2115.64 335.786 2117.08 330.75L2175.89 117.624H2235.24L2298.91 330.75C2300.35 335.786 2301.43 341.002 2302.15 346.398C2302.87 351.434 2303.23 354.671 2303.23 356.11H2305.38C2305.38 354.671 2305.74 351.434 2306.46 346.398C2307.18 341.002 2308.26 335.786 2309.7 330.75L2360.42 147.84H2328.05C2320.85 147.84 2317.25 143.703 2317.25 135.43C2317.25 129.315 2319.23 124.818 2323.19 121.941C2327.51 119.063 2333.26 117.624 2340.46 117.624H2428.4C2433.08 117.624 2435.42 120.142 2435.42 125.178C2435.42 132.012 2429.84 137.228 2418.69 140.825L2397.11 148.379L2330.2 382.009H2263.84L2206.11 186.148C2204.31 179.674 2202.87 172.659 2201.79 165.105C2201.07 157.192 2200.71 151.976 2200.71 149.458H2198.55C2198.55 151.976 2198.01 157.192 2196.93 165.105C2196.21 172.659 2194.95 179.674 2193.16 186.148L2139.2 382.009H2072.83L2001.61 147.84Z" fill="black"/>
<path d="M2470.6 382.009C2467.37 382.009 2464.85 380.93 2463.05 378.771C2461.25 376.253 2460.35 373.016 2460.35 369.059C2460.35 363.304 2462.33 358.987 2466.29 356.11C2470.6 353.232 2476.36 351.793 2483.55 351.793H2497.04V147.84H2470.6C2463.77 147.84 2460.35 143.703 2460.35 135.43C2460.35 129.315 2462.33 124.818 2466.29 121.941C2470.6 119.063 2476.36 117.624 2483.55 117.624H2544.52V153.775H2546.68C2576.9 126.077 2607.83 112.229 2639.49 112.229C2665.03 112.229 2686.07 119.782 2702.61 134.89C2719.52 149.638 2727.97 169.782 2727.97 195.321V351.793L2752.25 358.808C2758.01 360.606 2762.15 362.764 2764.66 365.282C2767.18 367.441 2768.44 370.498 2768.44 374.455C2768.44 379.491 2766.1 382.009 2761.43 382.009H2651.36C2648.12 382.009 2645.6 380.93 2643.8 378.771C2642 376.253 2641.1 373.016 2641.1 369.059C2641.1 363.304 2643.08 358.987 2647.04 356.11C2651.36 353.232 2657.11 351.793 2664.31 351.793H2677.79V199.637C2677.79 183.45 2673.12 170.501 2663.77 160.789C2654.41 151.077 2641.1 146.221 2623.84 146.221C2610.53 146.221 2597.22 149.818 2583.91 157.012C2570.6 164.206 2558.37 173.918 2547.22 186.148V351.793L2571.5 358.808C2577.26 360.246 2581.39 362.225 2583.91 364.743C2586.43 367.261 2587.69 370.498 2587.69 374.455C2587.69 379.491 2585.35 382.009 2580.67 382.009H2470.6Z" fill="black"/>
<path d="M2980.35 389.023C2945.82 389.023 2915.24 382.009 2888.62 367.98C2862.37 353.592 2841.68 331.83 2826.57 302.693C2811.83 273.557 2804.45 237.586 2804.45 194.781C2804.45 151.976 2811.83 116.005 2826.57 86.8692C2841.68 57.7329 2862.37 35.9707 2888.62 21.5824C2915.24 7.19413 2945.82 0 2980.35 0C3014.88 0 3045.28 7.19413 3071.53 21.5824C3098.15 35.9707 3118.84 57.7329 3133.58 86.8692C3148.69 116.005 3156.25 151.976 3156.25 194.781C3156.25 237.586 3148.69 273.557 3133.58 302.693C3118.84 331.83 3098.15 353.592 3071.53 367.98C3045.28 382.009 3014.88 389.023 2980.35 389.023ZM2979.81 353.412C3019.02 353.412 3049.05 339.743 3069.92 312.405C3090.78 285.068 3101.21 245.86 3101.21 194.781C3101.21 144.063 3090.78 104.855 3069.92 77.1571C3049.05 49.4597 3019.02 35.611 2979.81 35.611C2940.6 35.611 2910.57 49.4597 2889.7 77.1571C2869.2 104.855 2858.95 144.063 2858.95 194.781C2858.95 245.86 2869.2 285.068 2889.7 312.405C2910.57 339.743 2940.6 353.412 2979.81 353.412Z" fill="black"/>
<path d="M3215.66 382.009C3212.42 382.009 3209.91 380.93 3208.11 378.771C3206.31 376.253 3205.41 373.016 3205.41 369.059C3205.41 363.304 3207.39 358.987 3211.34 356.11C3215.66 353.232 3221.42 351.793 3228.61 351.793H3242.1V147.84H3215.66C3208.83 147.84 3205.41 143.703 3205.41 135.43C3205.41 129.315 3207.39 124.818 3211.34 121.941C3215.66 119.063 3221.42 117.624 3228.61 117.624H3289.58V171.58H3291.74C3304.69 155.034 3319.44 141.005 3335.98 129.494C3352.89 117.984 3368.54 112.229 3382.92 112.229C3391.56 112.229 3398.21 114.746 3402.89 119.782C3407.56 124.459 3409.9 130.394 3409.9 137.588C3409.9 146.94 3407.2 154.674 3401.81 160.789C3361.88 160.789 3325.37 175.717 3292.28 205.572V351.793L3316.56 358.808C3322.31 360.606 3326.45 362.764 3328.97 365.282C3331.49 367.441 3332.75 370.498 3332.75 374.455C3332.75 379.491 3330.41 382.009 3325.73 382.009H3215.66Z" fill="black"/>
<path d="M3497.63 76.6175C3487.56 76.6175 3479.11 73.3802 3472.27 66.9054C3465.8 60.4307 3462.56 51.9776 3462.56 41.5461C3462.56 31.1146 3465.8 22.8414 3472.27 16.7263C3479.11 10.2516 3487.56 7.01426 3497.63 7.01426C3507.34 7.01426 3515.44 10.2516 3521.91 16.7263C3528.75 22.8414 3532.16 31.1146 3532.16 41.5461C3532.16 51.9776 3528.75 60.4307 3521.91 66.9054C3515.44 73.3802 3507.34 76.6175 3497.63 76.6175ZM3446.91 382.009C3443.68 382.009 3441.16 380.93 3439.36 378.771C3437.56 376.253 3436.66 373.016 3436.66 369.059C3436.66 363.304 3438.64 358.987 3442.6 356.11C3446.91 353.232 3452.67 351.793 3459.86 351.793H3473.35V147.84H3446.91C3440.08 147.84 3436.66 143.703 3436.66 135.43C3436.66 129.315 3438.64 124.818 3442.6 121.941C3446.91 119.063 3452.67 117.624 3459.86 117.624H3523.53V351.793L3547.81 358.808C3553.57 360.606 3557.7 362.764 3560.22 365.282C3562.74 367.441 3564 370.498 3564 374.455C3564 379.491 3561.66 382.009 3556.98 382.009H3446.91Z" fill="black"/>
<path d="M3722.07 507.726C3706.24 507.726 3690.42 505.748 3674.59 501.791C3658.76 497.834 3645.45 492.619 3634.66 486.144C3621.71 478.59 3615.24 470.856 3615.24 462.943C3615.24 458.626 3616.5 455.029 3619.02 452.152C3621.89 449.634 3625.13 448.375 3628.73 448.375C3630.89 448.375 3633.22 449.094 3635.74 450.533C3638.62 451.972 3640.6 453.051 3641.68 453.77C3665.06 468.158 3691.14 475.353 3719.91 475.353C3745.45 475.353 3764.7 469.058 3777.65 456.468C3790.6 444.238 3797.07 426.253 3797.07 402.512V350.175H3794.91C3786.28 362.045 3775.13 371.577 3761.46 378.771C3747.79 385.606 3731.6 389.023 3712.9 389.023C3690.96 389.023 3670.81 384.167 3652.47 374.455C3634.48 364.383 3619.91 349.095 3608.76 328.592C3597.97 308.089 3592.58 282.73 3592.58 252.514C3592.58 221.939 3598.69 196.22 3610.92 175.357C3623.15 154.134 3639.7 138.307 3660.56 127.876C3681.42 117.444 3704.45 112.229 3729.63 112.229C3750.13 112.229 3770.81 116.005 3791.68 123.559C3812.9 131.113 3830.88 141.005 3845.63 153.235V394.958C3845.63 430.569 3835.02 458.267 3813.8 478.05C3792.57 497.834 3762 507.726 3722.07 507.726ZM3724.77 356.649C3744.55 356.649 3761.28 350.534 3774.95 338.304C3788.62 325.715 3795.45 309.528 3795.45 289.744V164.026C3786.46 157.911 3776.21 153.235 3764.7 149.998C3753.19 146.401 3741.68 144.602 3730.17 144.602C3704.99 144.602 3684.12 153.955 3667.58 172.659C3651.39 191.004 3643.3 217.623 3643.3 252.514C3643.3 285.967 3650.49 311.686 3664.88 329.671C3679.27 347.657 3699.23 356.649 3724.77 356.649Z" fill="black"/>
<path d="M3958.68 76.6175C3948.61 76.6175 3940.16 73.3802 3933.32 66.9054C3926.85 60.4307 3923.61 51.9776 3923.61 41.5461C3923.61 31.1146 3926.85 22.8414 3933.32 16.7263C3940.16 10.2516 3948.61 7.01426 3958.68 7.01426C3968.39 7.01426 3976.49 10.2516 3982.96 16.7263C3989.8 22.8414 3993.21 31.1146 3993.21 41.5461C3993.21 51.9776 3989.8 60.4307 3982.96 66.9054C3976.49 73.3802 3968.39 76.6175 3958.68 76.6175ZM3907.96 382.009C3904.73 382.009 3902.21 380.93 3900.41 378.771C3898.61 376.253 3897.71 373.016 3897.71 369.059C3897.71 363.304 3899.69 358.987 3903.65 356.11C3907.96 353.232 3913.72 351.793 3920.91 351.793H3934.4V147.84H3907.96C3901.13 147.84 3897.71 143.703 3897.71 135.43C3897.71 129.315 3899.69 124.818 3903.65 121.941C3907.96 119.063 3913.72 117.624 3920.91 117.624H3984.58V351.793L4008.86 358.808C4014.62 360.606 4018.75 362.764 4021.27 365.282C4023.79 367.441 4025.05 370.498 4025.05 374.455C4025.05 379.491 4022.71 382.009 4018.03 382.009H3907.96Z" fill="black"/>
<path d="M4068.73 382.009C4065.5 382.009 4062.98 380.93 4061.18 378.771C4059.38 376.253 4058.48 373.016 4058.48 369.059C4058.48 363.304 4060.46 358.987 4064.42 356.11C4068.73 353.232 4074.49 351.793 4081.68 351.793H4095.17V147.84H4068.73C4061.9 147.84 4058.48 143.703 4058.48 135.43C4058.48 129.315 4060.46 124.818 4064.42 121.941C4068.73 119.063 4074.49 117.624 4081.68 117.624H4142.65V153.775H4144.81C4175.03 126.077 4205.96 112.229 4237.62 112.229C4263.16 112.229 4284.2 119.782 4300.75 134.89C4317.65 149.638 4326.11 169.782 4326.11 195.321V351.793L4350.39 358.808C4356.14 360.606 4360.28 362.764 4362.8 365.282C4365.31 367.441 4366.57 370.498 4366.57 374.455C4366.57 379.491 4364.23 382.009 4359.56 382.009H4249.49C4246.25 382.009 4243.73 380.93 4241.93 378.771C4240.14 376.253 4239.24 373.016 4239.24 369.059C4239.24 363.304 4241.21 358.987 4245.17 356.11C4249.49 353.232 4255.24 351.793 4262.44 351.793H4275.93V199.637C4275.93 183.45 4271.25 170.501 4261.9 160.789C4252.54 151.077 4239.24 146.221 4221.97 146.221C4208.66 146.221 4195.35 149.818 4182.04 157.012C4168.73 164.206 4156.5 173.918 4145.35 186.148V351.793L4169.63 358.808C4175.39 360.246 4179.52 362.225 4182.04 364.743C4184.56 367.261 4185.82 370.498 4185.82 374.455C4185.82 379.491 4183.48 382.009 4178.81 382.009H4068.73Z" fill="black"/>
<path d="M4447.91 389.023C4438.55 389.023 4430.64 385.965 4424.17 379.85C4418.05 373.376 4414.99 365.462 4414.99 356.11C4414.99 346.757 4418.05 339.024 4424.17 332.909C4430.64 326.434 4438.55 323.197 4447.91 323.197C4456.9 323.197 4464.45 326.434 4470.57 332.909C4477.04 339.024 4480.28 346.757 4480.28 356.11C4480.28 365.462 4477.04 373.376 4470.57 379.85C4464.45 385.965 4456.9 389.023 4447.91 389.023Z" fill="black"/>
<circle cx="534.301" cy="191.217" r="190.79" fill="#5165FF"/>
<path d="M0.816895 382.008H379.967L0.816895 0.426758V382.008Z" fill="#5165FF"/>
<circle cx="4449.76" cy="356.489" r="35.2416" fill="#5165FF"/>
</svg>
