<svg width="125" height="28" viewBox="0 0 125 28" fill="none" xmlns="http://www.w3.org/2000/svg">
<path fill-rule="evenodd" clip-rule="evenodd" d="M12.967 0.975098H0.376953V13.5651H12.967V0.975098ZM52.0637 6.27611V22.1793H49.3027V9.6997H49.2659L44.333 22.1793H42.4923L37.449 9.6997H37.4122V22.1793H34.8721V6.27611H38.8479L43.4127 18.0562H43.4863L48.3088 6.27611H52.0637ZM54.3461 7.49093C54.3461 7.04918 54.4933 6.68105 54.8246 6.38655C55.156 6.09204 55.5241 5.94479 55.9658 5.94479C56.4444 5.94479 56.8494 6.09204 57.1439 6.38655C57.4384 6.68105 57.6224 7.04918 57.6224 7.49093C57.6224 7.93269 57.4752 8.30081 57.1439 8.59532C56.8125 8.88982 56.4444 9.03707 55.9658 9.03707C55.4873 9.03707 55.1192 8.88982 54.8246 8.59532C54.5301 8.264 54.3461 7.89587 54.3461 7.49093ZM57.3279 10.7673V22.1793H54.6406V10.7673H57.3279ZM65.4636 20.2282C65.8685 20.2282 66.3103 20.1546 66.7888 19.9337C67.2674 19.7496 67.7092 19.4919 68.1141 19.1974V21.7007C67.6723 21.9584 67.1938 22.1424 66.6416 22.2529C66.0894 22.3633 65.5004 22.437 64.8378 22.437C63.1444 22.437 61.7823 21.9216 60.7515 20.854C59.6839 19.7864 59.1686 18.4244 59.1686 16.8046C59.1686 14.9639 59.7208 13.4546 60.7883 12.2766C61.8559 11.0986 63.3652 10.5096 65.3531 10.5096C65.8685 10.5096 66.3839 10.5832 66.8625 10.6937C67.3778 10.8041 67.7828 10.9882 68.0773 11.1354V13.7123C67.6723 13.4178 67.2306 13.1601 66.8256 13.0129C66.3839 12.8656 65.9421 12.7552 65.5004 12.7552C64.4328 12.7552 63.5861 13.0865 62.9235 13.7859C62.2608 14.4854 61.9663 15.4057 61.9663 16.5837C61.9663 17.7249 62.2977 18.6452 62.9235 19.271C63.5493 19.8969 64.396 20.2282 65.4636 20.2282ZM75.7344 10.5832C75.9552 10.5832 76.1393 10.5832 76.3234 10.62C76.5074 10.6568 76.6547 10.6937 76.7651 10.7305V13.4546C76.6179 13.3442 76.4338 13.2337 76.1393 13.1601C75.8448 13.0865 75.5503 13.0129 75.1454 13.0129C74.4827 13.0129 73.9305 13.3074 73.4888 13.8596C73.047 14.4117 72.7893 15.2584 72.7893 16.4365V22.1793H70.102V10.7673H72.7893V12.5711H72.8261C73.0838 11.9453 73.452 11.4667 73.9305 11.0986C74.4459 10.7673 75.0349 10.5832 75.7344 10.5832ZM76.9124 16.6573C76.9124 14.7799 77.4646 13.2706 78.4953 12.1662C79.5629 11.0618 81.0354 10.5096 82.9129 10.5096C84.6799 10.5096 86.0788 11.025 87.0727 12.0925C88.0667 13.1601 88.5821 14.5958 88.5821 16.3996C88.5821 18.2403 88.0299 19.7128 86.9991 20.8172C85.9315 21.9216 84.4958 22.4738 82.6552 22.4738C80.8882 22.4738 79.4893 21.9584 78.4585 20.9276C77.4278 19.8601 76.9124 18.4243 76.9124 16.6573ZM79.7102 16.5469C79.7102 17.7249 79.9678 18.6452 80.52 19.271C81.0722 19.8969 81.8453 20.2282 82.8392 20.2282C83.7964 20.2282 84.5695 19.9337 85.0848 19.271C85.6002 18.6452 85.8579 17.7249 85.8579 16.4733C85.8579 15.2584 85.6002 14.3381 85.0848 13.6755C84.5695 13.0497 83.7964 12.7184 82.8761 12.7184C81.8821 12.7184 81.1459 13.0497 80.5937 13.7123C79.9678 14.4117 79.7102 15.3321 79.7102 16.5469ZM92.5947 13.7859C92.5947 14.1541 92.7051 14.4854 92.9628 14.7063C93.2205 14.9271 93.7359 15.1848 94.5826 15.5161C95.6501 15.9579 96.4232 16.4365 96.8281 16.9518C97.2699 17.504 97.4908 18.1298 97.4908 18.9029C97.4908 19.9705 97.0858 20.8172 96.2391 21.4798C95.4292 22.1424 94.2881 22.437 92.8892 22.437C92.4106 22.437 91.8952 22.3633 91.3062 22.2529C90.7172 22.1424 90.2386 21.9952 89.8337 21.8111V19.1606C90.3123 19.4919 90.8645 19.7864 91.4166 19.9705C91.9688 20.1546 92.4842 20.265 92.9628 20.265C93.5518 20.265 94.0304 20.1914 94.2881 20.0073C94.5826 19.8232 94.7298 19.5656 94.7298 19.1606C94.7298 18.7925 94.5826 18.498 94.2881 18.2035C93.9936 17.9458 93.4045 17.6513 92.5947 17.32C91.6007 16.915 90.9013 16.4365 90.4963 15.9211C90.0914 15.4057 89.8705 14.7431 89.8705 13.9332C89.8705 12.9024 90.2754 12.0557 91.0853 11.3931C91.8952 10.7305 92.9628 10.3991 94.2512 10.3991C94.6562 10.3991 95.0979 10.436 95.5765 10.5464C96.0551 10.6568 96.4968 10.7673 96.8281 10.8777V13.4914C96.46 13.2706 96.0551 13.0497 95.5765 12.8656C95.0979 12.6815 94.6194 12.6079 94.1776 12.6079C93.6622 12.6079 93.2573 12.7184 92.9996 12.9024C92.7419 13.1601 92.5947 13.4178 92.5947 13.7859ZM98.632 16.6573C98.632 14.7799 99.1842 13.2706 100.215 12.1662C101.283 11.0618 102.755 10.5096 104.632 10.5096C106.399 10.5096 107.798 11.025 108.792 12.0925C109.786 13.1601 110.302 14.5958 110.302 16.3996C110.302 18.2403 109.749 19.7128 108.719 20.8172C107.651 21.9216 106.215 22.4738 104.375 22.4738C102.608 22.4738 101.209 21.9584 100.178 20.9276C99.1842 19.8601 98.632 18.4243 98.632 16.6573ZM101.43 16.5469C101.43 17.7249 101.687 18.6452 102.24 19.271C102.792 19.8969 103.565 20.2282 104.559 20.2282C105.516 20.2282 106.289 19.9337 106.804 19.271C107.32 18.6452 107.578 17.7249 107.578 16.4733C107.578 15.2584 107.32 14.3381 106.804 13.6755C106.289 13.0497 105.516 12.7184 104.596 12.7184C103.602 12.7184 102.865 13.0497 102.313 13.7123C101.724 14.4117 101.43 15.3321 101.43 16.5469ZM119.247 12.976H115.235V22.1793H112.51V12.976H110.596V10.7673H112.51V9.18432C112.51 8.00631 112.915 7.01236 113.688 6.23929C114.462 5.46622 115.455 5.0981 116.67 5.0981C116.846 5.0981 117.012 5.10849 117.167 5.11823C117.304 5.12682 117.433 5.13491 117.554 5.13491C117.811 5.13491 118.032 5.20853 118.216 5.28216V7.60137C118.143 7.56456 117.959 7.49093 117.738 7.41731C117.517 7.34368 117.259 7.30687 116.965 7.30687C116.413 7.30687 115.971 7.49093 115.676 7.82225C115.382 8.15356 115.235 8.70576 115.235 9.36839V10.7305H119.247V8.15356L121.935 7.34368V10.7305H124.659V12.9392H121.935V18.2771C121.935 18.9765 122.082 19.4551 122.303 19.7496C122.56 20.0441 122.965 20.1914 123.517 20.1914C123.665 20.1914 123.849 20.1546 124.07 20.0809C124.291 20.0073 124.475 19.9337 124.622 19.8232V22.032C124.438 22.1424 124.18 22.2161 123.775 22.2897C123.37 22.3633 123.002 22.4001 122.597 22.4001C121.456 22.4001 120.609 22.1056 120.057 21.5166C119.505 20.9276 119.21 20.0073 119.21 18.7925L119.247 12.976ZM14.29 0.975098H26.88V13.5651H14.29V0.975098ZM12.967 14.8882H0.376953V27.4782H12.967V14.8882ZM14.29 14.8882H26.88V27.4782H14.29V14.8882Z" fill="white"/>
</svg>
