<?xml version="1.0" encoding="utf-8"?>
<!-- Generator: Adobe Illustrator 23.0.3, SVG Export Plug-In . SVG Version: 6.00 Build 0)  -->
<svg version="1.1" id="Layer_1" xmlns="http://www.w3.org/2000/svg" xmlns:xlink="http://www.w3.org/1999/xlink" x="0px" y="0px"
	 viewBox="0 0 249.69 296.74" style="enable-background:new 0 0 249.69 296.74;" xml:space="preserve">
<style type="text/css">
	.st0{fill:#FFFFFF;}
</style>
<g>
	<path class="st0" d="M161.02,160.83c27.74-18.54,41.79-43.4,41.79-73.99c0-23.44-8.59-43.13-25.53-58.51
		C160.53,13.11,138.53,5.4,111.89,5.4H68.52v285.95h6.72v-113.6h27.36l69.15,113.6h72.76L161.02,160.83z M130.17,114.81
		c-6.65,5.75-16.78,8.67-30.09,8.67H75.25V59.85h26.45c17.73,0,38.08,3.47,38.08,30.56C139.77,101.25,136.63,109.23,130.17,114.81z"
		/>
	<g>
		<path class="st0" d="M32.44,31.87c3.54,5.89,8.35,8.84,14.4,8.84c4.33,0,7.92-1.56,10.76-4.69c2.84-3.13,4.26-7.2,4.26-12.23V5.4
			H6.97v9.7h22.95v7.58L6.97,36.65v11.42l25.33-16.2H32.44z M38.15,15.1h15.45v6.65c0,5.99-2.49,8.98-7.47,8.98
			c-2.56,0-4.53-0.8-5.91-2.39c-1.38-1.59-2.07-3.9-2.07-6.92V15.1z"/>
		<polygon class="st0" points="15.48,64.26 30.6,64.26 30.6,81.18 39.15,81.18 39.15,64.26 53.27,64.26 53.27,83.55 61.82,83.55 
			61.82,54.56 6.93,54.56 6.93,83.84 15.48,83.84 		"/>
		<path class="st0" d="M14.72,135.51v0.18h-7.8v7.33h28.99v-29.85l-8.23,1.76v19.72c-2.25-0.19-4.24-0.77-5.96-1.72
			c-1.72-0.96-3.09-2.18-4.11-3.66c-1.02-1.48-1.78-3.11-2.28-4.87c-0.5-1.76-0.75-3.63-0.75-5.62c0-5.87,1.9-10.57,5.69-14.12
			c3.8-3.54,8.76-5.32,14.89-5.32c3.54,0,6.75,0.7,9.61,2.1c2.86,1.4,5.14,3.43,6.84,6.09c1.7,2.66,2.55,5.71,2.55,9.16
			c0,4.41-1.13,7.96-3.38,10.67c-2.25,2.71-5.45,4.39-9.59,5.07l3.7,8.84c5.36-1.08,9.72-3.67,13.08-7.78
			c3.35-4.11,5.03-9.36,5.03-15.75c0-4.38-0.75-8.38-2.26-11.98c-1.51-3.6-3.58-6.6-6.22-8.98c-2.63-2.38-5.74-4.22-9.32-5.51
			c-3.58-1.29-7.44-1.94-11.58-1.94c-3.93,0-7.64,0.78-11.14,2.34c-3.5,1.56-6.45,3.63-8.87,6.21c-2.42,2.59-4.34,5.62-5.75,9.09
			c-1.41,3.47-2.12,7.09-2.12,10.85C5.74,125.46,8.74,131.36,14.72,135.51z"/>
		<rect x="6.93" y="151.69" class="st0" width="54.89" height="9.7"/>
		<polygon class="st0" points="61.82,169.94 53.27,169.94 53.27,184.27 6.93,184.27 6.93,193.97 53.27,193.97 53.27,208.34 
			61.82,208.34 		"/>
		<path class="st0" d="M6.93,247.04v10.45l54.89-21.91v-9.88L6.93,204.08v10.02l15.02,5.75v21.48L6.93,247.04z M30.17,223.01
			l19.51,7.51v0.14l-19.51,7.51V223.01z"/>
		<polygon class="st0" points="61.82,273.38 61.82,263.69 6.93,263.69 6.93,291.35 15.48,291.35 15.48,273.38 		"/>
	</g>
</g>
</svg>
