<svg xmlns="http://www.w3.org/2000/svg" viewBox="0 0 140 82" width="200">
    <path d="M56.5 78.7c-.4 0-.8.2-1.1.5-.3.3-.4.7-.4 1.1 0 .4.1.8.4 1.1.3.3.7.5 1.1.5.4 0 .8-.2 1.1-.5.3-.3.5-.7.5-1.1 0-.5-.2-.8-.5-1.1-.3-.4-.6-.5-1.1-.5zm15.3.9c-.2 0-.5 0-.6-.1-.2 0-.3-.1-.5-.3-.1-.1-.2-.4-.3-.6-.1-.3-.1-.6-.1-1.1v-4.3h2.4v-2.1h-2.4V68h-2.4v3.2H66v2.1h1.8v4.9c0 .9.1 1.6.4 2.1.2.5.5.9.9 1.1.4.2.7.4 1.1.4.4.1.7.1 1 .1h1c.3 0 .6-.1.8-.1v-2.2c-.1 0-.3.1-.6.1h-.6zm11.6-7.3c-.4-.4-1-.8-1.6-1-.6-.2-1.2-.4-1.9-.4-.8 0-1.6.1-2.2.4-.6.3-1.2.7-1.6 1.2-.4.5-.8 1.1-1 1.8-.2.7-.3 1.4-.3 2.2 0 .8.1 1.5.3 2.2.2.7.5 1.3 1 1.8.4.5 1 .9 1.6 1.2.7.3 1.4.4 2.3.4.7 0 1.3-.1 1.8-.3.5-.2 1-.4 1.4-.8.4-.3.7-.7 1-1.1.2-.4.4-.9.5-1.3h-2.5c-.2.4-.4.7-.7 1-.3.3-.8.4-1.5.4-.5 0-.9-.1-1.3-.2-.3-.1-.6-.3-.8-.6-.2-.2-.4-.5-.5-.9-.1-.3-.2-.7-.2-1.1h7.5c.1-.3.1-.6.1-.9v-.6c0-.7-.1-1.3-.4-1.9-.2-.6-.6-1.1-1-1.5zm-6.2 3.1c0-.9.3-1.5.8-2 .5-.4 1.1-.7 1.9-.7.7 0 1.4.2 1.8.7.5.5.7 1.1.7 1.9h-5.2zm16.7 3.9c-.3.3-.9.5-1.6.5-.5 0-1-.1-1.3-.3-.4-.2-.7-.4-.9-.7-.2-.3-.4-.7-.5-1.1-.1-.4-.2-.8-.2-1.3s.1-.9.2-1.3.3-.8.5-1.1c.2-.3.5-.6.9-.7.3-.2.8-.3 1.2-.3.8 0 1.4.2 1.8.5.4.4.6.8.7 1.4h2.4c0-.5-.2-1-.4-1.5s-.5-.9-.9-1.3-.9-.7-1.5-.9c-.6-.2-1.3-.4-2.2-.4-.9 0-1.6.2-2.2.5-.6.3-1.2.7-1.6 1.2-.4.5-.8 1.1-1 1.8-.2.7-.3 1.4-.3 2.1 0 .7.1 1.4.3 2.1.2.7.6 1.3 1 1.8s1 .9 1.6 1.2c.7.3 1.4.5 2.3.5.8 0 1.4-.1 2-.3.6-.2 1.1-.5 1.5-.8.4-.4.7-.8 1-1.2.2-.5.4-1 .5-1.5h-2.4c-.3.4-.6.8-.9 1.1zm15.5-5.7c-.1-.5-.3-.9-.5-1.3-.3-.4-.7-.8-1.2-1-.5-.3-1.2-.4-1.9-.4-.8 0-1.5.1-2 .4-.6.3-1 .7-1.4 1.3v-6.8H100v15.9h2.4v-5.5c0-.9.2-1.7.6-2.3.4-.6 1-.9 1.9-.9.4 0 .8.1 1.1.2.3.2.5.4.7.7.2.3.3.6.4 1 .1.4.1.8.1 1.3v5.5h2.4v-6.3c-.1-.7-.1-1.3-.2-1.8z"
          fill="#0064ff"></path>
    <path d="M67.8 12.3c0 .9.1 1.6.4 2.1.2.5.5.9.9 1.1.4.2.7.4 1.1.4.4.1.7.1 1 .1h1c.3 0 .6-.1.8-.1v-2.2c-.1 0-.3.1-.6.1h-.7c-.2 0-.5 0-.6-.1-.2 0-.3-.1-.5-.3-.1-.1-.2-.4-.3-.6-.1-.3-.1-.6-.1-1.1V7.4h2.4V5.3h-2.4V2.1h-2.4v3.2H66v2.1h1.8v4.9zM29.2 29.5L0 59h58.1V29.5L29.2 58.7V29.5zm49.5 5.4c.2.5.5.9.9 1.1.4.2.7.4 1.1.4.4.1.7.1 1 .1h1c.3 0 .6-.1.8-.1v-2.2c-.1 0-.3.1-.6.1h-.7c-.2 0-.5 0-.6-.1-.2 0-.3-.1-.5-.3-.1-.1-.2-.4-.3-.6-.1-.3-.1-.6-.1-1.1v-4.3h2.4v-2.1h-2.4v-3.2h-2.4v3.2h-1.8v2.1h1.8v4.9c0 .9.1 1.6.4 2.1zm60.9-5.9c-.3-.7-.6-1.3-1.1-1.8-.5-.5-1-.9-1.7-1.2-.7-.3-1.4-.4-2.2-.4-.6 0-1.2.2-1.8.5-.6.3-1.1.7-1.4 1.2v-1.4H129v15.9h2.4v-6.7c.3.5.8.9 1.4 1.2.6.3 1.2.5 1.8.5.8 0 1.5-.1 2.2-.4.7-.3 1.2-.7 1.7-1.2s.8-1.1 1.1-1.8c.3-.7.4-1.4.4-2.1 0-1-.1-1.7-.4-2.3zm-2.3 3.4c-.1.4-.3.8-.6 1.1-.3.3-.6.5-1 .7-.4.2-.8.3-1.3.3s-.9-.1-1.3-.3c-.4-.2-.7-.4-1-.7-.3-.3-.5-.7-.6-1.1-.1-.4-.2-.8-.2-1.3s.1-.9.2-1.3.3-.8.6-1.1c.3-.3.6-.5 1-.7.4-.2.8-.3 1.3-.3s.9.1 1.3.3c.4.2.7.4 1 .7.3.3.5.7.6 1.1.1.4.2.8.2 1.3s0 .9-.2 1.3zm-28 .4c0 .9.1 1.6.4 2.1.2.5.5.9.9 1.1.4.2.7.4 1.1.4.4.1.7.1 1 .1h1c.3 0 .6-.1.8-.1v-2.2c-.1 0-.3.1-.6.1h-.7c-.2 0-.5 0-.6-.1-.2 0-.3-.1-.5-.3-.1-.1-.2-.4-.3-.6-.1-.3-.1-.6-.1-1.1v-4.3h2.4v-2.1h-2.4v-3.2h-2.4v3.2h-1.8v2.1h1.8v4.9zm-7.7-1c0-1.3.3-2.3.8-2.9.6-.6 1.4-.9 2.4-.9h.5c.1 0 .3 0 .5.1v-2.3c-.3-.1-.6-.2-1-.2-.3 0-.7 0-1 .1-.3.1-.7.2-.9.4-.3.2-.5.4-.8.6-.2.2-.4.4-.5.7v-1.7h-2.4v10.6h2.4v-4.5zM43.5 0c-8.1 0-14.6 6.6-14.6 14.8 0 8.2 6.5 14.8 14.6 14.8S58.1 23 58.1 14.8C58.1 6.6 51.6 0 43.5 0zm0 18.4c-2 0-3.7-1.7-3.7-3.7s1.6-3.7 3.7-3.7c2 0 3.7 1.7 3.7 3.7s-1.7 3.7-3.7 3.7zm34.7-8c0-.9.2-1.7.6-2.3.4-.6 1-.9 1.9-.9.4 0 .8.1 1.1.2.3.2.5.4.7.7.2.3.3.6.4 1 0 .4.1.9.1 1.3v5.5h2.4V9.6c0-.7 0-1.3-.1-1.8s-.3-.9-.5-1.3c-.3-.4-.7-.8-1.2-1-.6-.3-1.2-.5-2-.5s-1.5.1-2 .4c-.6.3-1 .7-1.4 1.3V0h-2.4v15.9h2.4v-5.5zm10.6 4.1c.4.5 1 .9 1.6 1.2.7.3 1.4.4 2.3.4.7 0 1.3-.1 1.8-.3.5-.2 1-.4 1.4-.8.4-.3.7-.7 1-1.1.2-.4.4-.9.5-1.3H95c-.2.4-.4.7-.7 1-.3.3-.8.4-1.5.4-.5 0-.9-.1-1.3-.2-.3-.1-.6-.3-.8-.6-.2-.2-.4-.5-.5-.9-.1-.3-.2-.7-.2-1.1h7.5c.1-.3.1-.6.1-.9v-.6c0-.7-.1-1.3-.4-1.9-.2-.6-.6-1.1-1-1.5-.4-.4-1-.8-1.6-1-.6-.1-1.2-.3-1.9-.3-.8 0-1.6.1-2.2.4-.6.3-1.2.7-1.6 1.2-.4.5-.8 1.1-1 1.8-.2.7-.3 1.4-.3 2.2 0 .8.1 1.5.3 2.2.2.6.5 1.2.9 1.7zm1.9-6.9c.5-.4 1.1-.7 1.9-.7.7 0 1.4.2 1.8.7.5.5.7 1.1.7 1.9H90c0-.9.2-1.5.7-1.9zm26.1 42.3c-.5-.5-1.1-.9-1.8-1.2-.7-.3-1.4-.4-2.3-.4-.8 0-1.6.1-2.3.4-.7.3-1.3.7-1.7 1.2-.5.5-.9 1.1-1.1 1.8-.3.7-.4 1.4-.4 2.1 0 .8.1 1.5.4 2.1.3.7.6 1.3 1.1 1.8.5.5 1.1.9 1.7 1.2s1.4.4 2.3.4c.8 0 1.6-.1 2.3-.4.7-.3 1.3-.7 1.8-1.2s.9-1.1 1.1-1.8c.3-.7.4-1.4.4-2.1 0-.7-.1-1.4-.4-2.1-.3-.7-.6-1.3-1.1-1.8zm-1.2 5.2c-.1.4-.4.8-.6 1.1-.3.3-.6.5-1 .7-.4.2-.8.3-1.3.3s-.9-.1-1.3-.3c-.4-.2-.7-.4-1-.7-.3-.3-.5-.7-.6-1.1-.1-.4-.2-.8-.2-1.3s.1-.9.2-1.3.3-.8.6-1.1c.3-.3.6-.5 1-.7.4-.2.8-.3 1.3-.3s.9.1 1.3.3.7.4 1 .7c.3.3.5.7.6 1.1.1.4.2.8.2 1.3 0 .4 0 .9-.2 1.3zm-25-18.5c.6 0 1.2-.2 1.8-.5s1.1-.7 1.4-1.2v1.4h2.4V25.8h-2.4v1.4c-.3-.5-.8-.9-1.4-1.2-.6-.3-1.2-.5-1.8-.5-.8 0-1.5.1-2.2.4-.7.3-1.2.7-1.7 1.2s-.8 1.1-1.1 1.8c-.3.7-.4 1.4-.4 2.1 0 .8.1 1.5.4 2.1.3.7.6 1.3 1.1 1.8.5.5 1 .9 1.7 1.2.7.4 1.4.5 2.2.5zm-2.9-5.5c0-.5.1-.9.2-1.3s.3-.8.6-1.1c.3-.3.6-.5 1-.7.4-.2.8-.3 1.3-.3s.9.1 1.3.3.7.4 1 .7c.3.3.5.7.6 1.1.1.4.2.8.2 1.3s-.1.9-.2 1.3-.4.8-.6 1.1c-.3.3-.6.5-1 .7s-.8.3-1.3.3-.9-.1-1.3-.3c-.4-.2-.7-.4-1-.7-.3-.3-.5-.7-.6-1.1-.1-.4-.2-.9-.2-1.3zm17 25.8c-.2 0-.5 0-.6-.1-.2 0-.3-.1-.5-.3-.1-.1-.2-.4-.3-.6-.1-.3-.1-.6-.1-1.1v-4.3h2.4v-2.1h-2.4v-3.2h-2.4v3.2H99v2.1h1.8v4.9c0 .9.1 1.6.4 2.1.2.5.5.9.9 1.1.4.2.7.4 1.1.4.4.1.7.1 1 .1h1c.3 0 .6-.1.8-.1v-2.2c-.1 0-.3.1-.6.1h-.7zM71.9 43c-.3 0-.7 0-1.1.1-.4.1-.9.2-1.2.5-.4.3-.7.7-1 1.2-.3.6-.4 1.3-.4 2.3v1.3H66v2.1h2.1V59h2.4v-8.5h2.7v-2.1h-2.7v-1.6c0-.4.1-.7.2-1 .1-.2.2-.4.4-.5.2-.1.3-.2.5-.2h1.2c.2 0 .4.1.5.1v-2.1c-.1-.1-.3-.1-.6-.2-.2.2-.5.1-.8.1zm51.8-8.1v1.5h2.4V25.8h-2.4v5.5c0 .9-.2 1.7-.6 2.3-.4.6-1 .9-1.9.9-.4 0-.8-.1-1.1-.2-.3-.2-.5-.4-.7-.7-.2-.3-.3-.6-.4-1-.1-.4-.1-.8-.1-1.3v-5.5h-2.4v6.3c0 .7 0 1.3.1 1.8s.3.9.5 1.3c.3.4.7.8 1.2 1 .5.3 1.2.4 1.9.4.8 0 1.5-.1 2-.4.7-.3 1.1-.7 1.5-1.3zM94.4 56.7c-.3.3-.9.5-1.6.5-.5 0-1-.1-1.3-.3-.4-.2-.7-.4-.9-.7-.2-.3-.4-.7-.5-1.1-.1-.4-.2-.8-.2-1.3s.1-.9.2-1.3.3-.8.5-1.1c.2-.3.5-.6.9-.7.3-.2.8-.3 1.2-.3.8 0 1.4.2 1.8.5.4.4.6.8.7 1.4h2.4c0-.5-.2-1-.4-1.5s-.5-.9-.9-1.3-.9-.7-1.5-.9c-.6-.2-1.3-.4-2.2-.4-.9 0-1.6.2-2.2.5-.6.3-1.2.7-1.6 1.2-.4.5-.8 1.1-1 1.8-.2.7-.3 1.4-.3 2.1 0 .7.1 1.4.3 2.1.2.7.6 1.3 1 1.8s1 .9 1.6 1.2c.7.3 1.4.5 2.3.5.8 0 1.4-.1 2-.3.6-.2 1.1-.5 1.5-.8.4-.4.7-.8 1-1.2.2-.5.4-1 .5-1.5h-2.4c-.3.4-.6.8-.9 1.1zM74.8 33.4c0-.5-.1-.9-.2-1.2-.2-.3-.4-.6-.6-.8l-.9-.6c-.3-.2-.7-.3-1.1-.4-.5-.2-.9-.3-1.3-.5-.4-.1-.7-.2-.9-.4-.2-.1-.4-.2-.5-.4-.1-.1-.2-.3-.2-.6 0-.4.1-.7.4-.9.3-.2.6-.3 1.1-.3.6 0 1 .1 1.3.4.3.3.4.7.4 1.2h2.4c0-.5-.1-1-.3-1.4-.2-.4-.5-.8-.9-1.1-.4-.3-.8-.6-1.3-.7-.5-.2-1-.3-1.6-.3-.5 0-1 .1-1.5.2s-.9.3-1.2.6c-.4.3-.6.6-.9 1-.2.4-.3.8-.3 1.3s.1.8.2 1.2c.1.3.3.6.5.8.2.2.5.4.8.6.3.2.6.3 1 .4.6.2 1 .4 1.4.5.4.1.7.3 1 .4.3.1.5.3.6.4.1.2.2.3.2.6 0 .5-.2.8-.5 1-.3.2-.7.3-1.2.3-.6 0-1.1-.1-1.4-.4-.4-.3-.6-.8-.6-1.5h-2.4c0 .6.1 1.2.3 1.6.2.5.5.9.9 1.2.4.3.9.6 1.4.7.5.2 1 .2 1.6.2.6 0 1.1-.1 1.6-.2s1-.3 1.3-.6c.4-.3.7-.6.9-1 .4-.3.5-.7.5-1.3zM125 48.5c-.3.1-.7.2-.9.4-.3.2-.5.4-.8.6-.2.2-.4.5-.5.7v-1.7h-2.4v10.6h2.4v-4.6c0-1.3.3-2.3.8-2.9.6-.6 1.4-.9 2.4-.9h.5c.1 0 .3 0 .5.1v-2.3c-.3-.1-.6-.2-1-.2-.3 0-.7.1-1 .2zm11.1 5.4c0 .9-.2 1.7-.6 2.3-.4.6-1 .9-1.9.9-.4 0-.8-.1-1.1-.2-.3-.2-.5-.4-.7-.7-.2-.3-.3-.6-.4-1-.1-.4-.1-.8-.1-1.3v-5.5h-2.4v6.3c0 .7 0 1.3.1 1.8s.3.9.5 1.3c.3.4.7.8 1.2 1 .5.3 1.2.4 1.9.4.8 0 1.5-.1 2-.4s1-.7 1.4-1.3V60c0 .5-.1.9-.2 1.2s-.3.6-.5.8c-.2.2-.5.3-.8.4-.3.1-.7.1-1 .1-.6 0-1.2-.2-1.7-.6-.5-.4-.7-.9-.8-1.7h-2.5c0 .7.1 1.4.4 1.9.2.5.6 1 1 1.4.4.4.9.6 1.5.8.6.2 1.2.3 1.9.3 1.6 0 2.9-.4 3.8-1.1.9-.8 1.3-1.9 1.3-3.5V48.5H136v5.4zm-53.2-4c-.3-.5-.8-.9-1.4-1.2-.6-.3-1.2-.5-1.8-.5-.8 0-1.5.1-2.2.4-.7.3-1.2.7-1.7 1.2s-.8 1.1-1.1 1.8c-.3.7-.4 1.4-.4 2.1 0 .8.1 1.5.4 2.1.3.7.6 1.3 1.1 1.8.5.5 1 .9 1.7 1.2.7.3 1.4.4 2.2.4.6 0 1.2-.2 1.8-.5s1.1-.7 1.4-1.2v1.4h2.4V48.5h-2.4v1.4zm-.3 5.2c-.1.4-.4.8-.6 1.1-.3.3-.6.5-1 .7-.4.2-.8.3-1.3.3s-.9-.1-1.3-.3c-.4-.2-.7-.4-1-.7-.3-.3-.5-.7-.6-1.1-.1-.4-.2-.8-.2-1.3s.1-.9.2-1.3.3-.8.6-1.1c.3-.3.6-.5 1-.7.4-.2.8-.3 1.3-.3s.9.1 1.3.3.7.4 1 .7c.3.3.5.7.6 1.1.1.4.2.8.2 1.3.1.4 0 .9-.2 1.3z"
          fill="#202532"></path>
</svg>
