<svg xmlns="http://www.w3.org/2000/svg" width="505.17" height="113.403" viewBox="0 0 505.17 113.403">
  <g id="wk-f-logo-blue" transform="translate(-342.69 -364.25)">
    <path id="Path_5773" data-name="Path 5773" d="M459,397.19l.09-.3H435.83l-4,16.76a199.132,199.132,0,0,1,23.51-4.55Z" fill="#03a9f4"/>
    <path id="Path_5774" data-name="Path 5774" d="M731.39,466a38.755,38.755,0,0,0,6,4.87c4.36-.59,8.7-1.27,13-2.12a196.833,196.833,0,0,0,21.29-5.25,176.236,176.236,0,0,0,20.58-7.58l2-.9-14.13-7a23.68,23.68,0,0,1-7.34,8.12,20.16,20.16,0,0,1-11.79,3.2,25.08,25.08,0,0,1-7.1-1,19,19,0,0,1-6.38-3.32,19.481,19.481,0,0,1-4.89-5.67,21.629,21.629,0,0,1-2.61-8.13h58.47l.05-3.47v-1.89a49.752,49.752,0,0,0-2.52-16.09,36.709,36.709,0,0,0-7.42-12.85,33.72,33.72,0,0,0-12.14-8.52,42.12,42.12,0,0,0-16.56-3.08,38.809,38.809,0,0,0-16.17,3.32,40,40,0,0,0-21.06,22,42.42,42.42,0,0,0-3,15.85A43,43,0,0,0,722.79,453a39.27,39.27,0,0,0,8.6,13Zm16.88-50a18.87,18.87,0,0,1,11.67-3.79,20.92,20.92,0,0,1,8.12,1.42,18.35,18.35,0,0,1,5.68,3.63,16.211,16.211,0,0,1,3.47,4.73,13.46,13.46,0,0,1,1.34,4.57H741.17a19.89,19.89,0,0,1,7.1-10.56Z" fill="#03a9f4"/>
    <path id="Path_5775" data-name="Path 5775" d="M610.69,420.62a42.259,42.259,0,0,0-3,15.85A43,43,0,0,0,610.77,453c.33.83.73,1.61,1.11,2.4,16,6.53,32.45,11.89,49.46,14.62,3.39.52,6.79.93,10.2,1.25a43.37,43.37,0,0,0,13.54-14.72L667.93,448a23.51,23.51,0,0,1-7.31,8.12,19.945,19.945,0,0,1-11.72,3.23,24.82,24.82,0,0,1-7.07-1,18.771,18.771,0,0,1-6.37-3.32,19.6,19.6,0,0,1-4.88-5.67A21.621,21.621,0,0,1,628,441.2h58.26l.08-3.47v-1.89a50,50,0,0,0-2.51-16.09,36.89,36.89,0,0,0-7.39-12.85,33.77,33.77,0,0,0-12.11-8.52,41.921,41.921,0,0,0-16.52-3.08,38.61,38.61,0,0,0-16.12,3.32,39.91,39.91,0,0,0-21,22ZM636.17,416a18.77,18.77,0,0,1,11.63-3.79,20.78,20.78,0,0,1,8.1,1.42,18.13,18.13,0,0,1,5.66,3.63A16,16,0,0,1,665,422a13.239,13.239,0,0,1,1.34,4.57H629.09A19.92,19.92,0,0,1,636.17,416Z" fill="#03a9f4"/>
    <path id="Path_5776" data-name="Path 5776" d="M807,448.54c1.6-.91,3.23-1.75,4.77-2.77l4.7-2.9c1.54-1,3-2.1,4.56-3.12l2.3-1.56c.74-.54,1.46-1.12,2.2-1.68l.21-.15V414.6h19V396.89h-19V374.72l-20.7,2.6v72.32C805.68,449.28,806.33,448.9,807,448.54Z" fill="#03a9f4"/>
    <path id="Path_5777" data-name="Path 5777" d="M367.39,396.89h-24.7l.08.29,14.53,49.17c2.87-1.88,9.46-6.05,18.83-11Z" fill="#03a9f4"/>
    <path id="Path_5778" data-name="Path 5778" d="M706.63,473.23q3.35-.11,6.67-.25V364.25l-20.61,2.59V473.23Q699.64,473.37,706.63,473.23Z" fill="#03a9f4"/>
    <path id="Path_5779" data-name="Path 5779" d="M411.14,396.89H392l-10.5,35.77A264.726,264.726,0,0,1,417.11,418Z" fill="#03a9f4"/>
    <path id="Path_5780" data-name="Path 5780" d="M793.94,459.52a151.064,151.064,0,0,1-20.81,8.59,188.915,188.915,0,0,1-21.79,5.65q-3.14.57-6.28,1.05a42.7,42.7,0,0,0,15.67,2.83q13.08,0,22.16-5.84a43.209,43.209,0,0,0,13.28-13.4C795.43,458.78,794.69,459.16,793.94,459.52Z" fill="#03a9f4"/>
    <path id="Path_5781" data-name="Path 5781" d="M424.59,444.31l-5.32-18.78a324.684,324.684,0,0,0-39.19,11.78l-2,6.73-1.25-5.52q-9.47,3.62-19.46,8.13l8.7,29.44h22L400.57,432l12.73,44.07h21.77l17-56.25c-6.11.67-13.72,1.75-22.54,3.48Z" fill="#03a9f4"/>
    <path id="Path_5782" data-name="Path 5782" d="M842,456a13,13,0,0,1-3,1.5,13.249,13.249,0,0,1-4.27.56,7.83,7.83,0,0,1-6.32-2.61,8.279,8.279,0,0,1-2.13-4,22.335,22.335,0,0,1-.56-5.13V437.4c-1.23,1.21-2.49,2.4-3.83,3.48s-2.82,2.46-4.28,3.62l-4.47,3.39c-2.61,1.85-5.28,3.65-8,5.37q.79,11.08,7.32,17.45a22.159,22.159,0,0,0,7.82,5.08,28.161,28.161,0,0,0,10.51,1.86,45.654,45.654,0,0,0,9.25-.87,34.072,34.072,0,0,0,7.82-2.61Z" fill="#03a9f4"/>
    <path id="Path_5783" data-name="Path 5783" d="M600.48,456.74q-12-4-23.8-8.35l17.21,27.7h24.43l-11.48-17.28Z" fill="#03a9f4"/>
    <path id="Path_5784" data-name="Path 5784" d="M615.64,461.59a38.622,38.622,0,0,0,3.7,4.38,39.131,39.131,0,0,0,13,8.59,42.179,42.179,0,0,0,16.28,3.08,43.06,43.06,0,0,0,17.26-3.26c-1.71-.32-3.43-.63-5.13-1a455.809,455.809,0,0,1-45.11-11.79Z" fill="#03a9f4"/>
    <path id="Path_5785" data-name="Path 5785" d="M517.06,405.59a32.61,32.61,0,0,0-23.88-10.29,36.76,36.76,0,0,0-27.75,12.64l1.45-.1c2.69-.12,5.3-.24,8.06-.22s5.49.15,8.21.38a145.522,145.522,0,0,1,31.43,6.44c7.24,2.32,13.66,4.24,23.17,8.13V396.85H517.06Z" fill="#03a9f4"/>
    <path id="Path_5786" data-name="Path 5786" d="M515.13,425.92l.67,1.83a25.91,25.91,0,0,1,1.51,8.89c0,13.14-8.84,22.67-21,22.67s-21-9.53-21-22.67a23.55,23.55,0,0,1,6.12-16.43l1-1c-10.06-1.32-24.06.35-24.06.35A44.631,44.631,0,0,0,455,436.47c0,23.08,16.78,41.17,38.19,41.17a32.63,32.63,0,0,0,23.89-10.29v8.74h20.68V433.3c-2.65-.78-5.74-1.78-9.33-3.06C523.73,428.57,519.3,427.14,515.13,425.92Z" fill="#03a9f4"/>
    <path id="Path_5787" data-name="Path 5787" d="M587.51,429.63l31.58-32.74H593.33l-27.7,29.55h-.92V364.25L544,366.84v58.32a17.2,17.2,0,0,0,1.73.79Q560.2,432,574.3,438.52c9.15,4.17,18.2,8.5,27.39,12.51Z" fill="#03a9f4"/>
    <path id="Path_5788" data-name="Path 5788" d="M544.03,476.09h20.69v-24.1l5.91-5.81-26.6-10.25Z" fill="#03a9f4"/>
  </g>
</svg>
