<?xml version="1.0" encoding="utf-8"?>
<!-- Generator: Adobe Illustrator 22.1.0, SVG Export Plug-In . SVG Version: 6.00 Build 0)  -->
<svg version="1.1" id="Layer_1" xmlns="http://www.w3.org/2000/svg" xmlns:xlink="http://www.w3.org/1999/xlink" x="0px" y="0px"
	 width="200px" height="200px" viewBox="0 0 200 200" style="enable-background:new 0 0 200 200;" xml:space="preserve">
<style type="text/css">
	.st0{fill:#46AF74;}
</style>
<g>
	<path class="st0" d="M8.6,95.9c0.1-0.2,0.2-0.4,0.2-0.6c0-2.3,0.3-4.5,0.6-6.8c0.4-4,1.2-7.9,2.2-11.7c1.1-4.1,2.4-8,4-11.9
		c2-4.7,4.3-9.1,7-13.4c2.2-3.5,4.6-6.8,7.3-10c2.2-2.6,4.5-5.2,7-7.5c3.2-3,6.6-5.8,10.2-8.4c4.7-3.3,9.6-6.2,14.9-8.6
		c2.3-1.1,4.7-2,7.1-2.9c3.2-1.2,6.5-2.2,9.8-2.9c2.7-0.6,5.3-1.2,8-1.5c1.8-0.2,3.6-0.4,5.4-0.6c3.6-0.4,7.2-0.4,10.8-0.3
		c1.5,0,3,0.2,4.5,0.3c1.6,0.1,3.1,0.2,4.7,0.4c2.1,0.3,4.2,0.7,6.2,1.1c3.6,0.7,7.2,1.7,10.7,2.9c2.6,0.9,5.2,1.9,7.7,3
		c1.9,0.8,3.8,1.8,5.7,2.8c4.5,2.3,8.7,5,12.7,8.1c2.3,1.8,4.5,3.6,6.6,5.6c1.3,1.2,2.6,2.4,3.8,3.7c2.1,2.2,4.1,4.5,6,6.8
		c1.8,2.3,3.5,4.6,5.1,7.1c2.6,3.9,4.8,8.1,6.7,12.4c1.1,2.6,2.2,5.2,3.1,7.8c1.2,3.5,2.2,7,2.9,10.6c0.4,2.1,0.8,4.2,1.1,6.3
		c0.2,1.5,0.3,3.1,0.5,4.7c0.4,3.5,0.4,7,0.3,10.4c0,1.7-0.2,3.3-0.3,5c-0.1,0.7-0.1,1.5-0.2,2.2c-0.3,3.4-0.9,6.7-1.6,10
		c-0.7,3.2-1.6,6.4-2.6,9.5c-1.5,4.5-3.4,8.8-5.6,13c-2.5,4.8-5.4,9.4-8.8,13.7c-1.6,2.1-3.4,4-5.1,6c-1.2,1.4-2.5,2.7-3.9,4
		c-3.2,3-6.6,5.9-10.2,8.5c-4.7,3.3-9.6,6.2-14.9,8.6c-2.3,1.1-4.7,2-7.1,2.9c-3.2,1.2-6.5,2.2-9.8,2.9c-2.7,0.6-5.4,1.2-8.1,1.5
		c-1.8,0.2-3.5,0.4-5.3,0.6c-1.1,0.1-2.1,0.1-3.2,0.2c-0.2,0-0.4,0.1-0.6,0.2c-2.6,0-5.2,0-7.8,0c-0.2-0.1-0.4-0.2-0.6-0.2
		c-1.1-0.1-2.1-0.1-3.2-0.2c-1.8-0.2-3.5-0.4-5.3-0.6c-2.7-0.3-5.4-0.9-8.1-1.5c-3.3-0.8-6.6-1.7-9.8-2.9c-2.4-0.9-4.8-1.8-7.1-2.9
		c-5.3-2.4-10.3-5.3-15-8.7c-3.6-2.6-6.9-5.4-10.1-8.4c-2.4-2.3-4.7-4.8-6.8-7.4c-2.7-3.2-5.1-6.5-7.3-10c-2.7-4.3-5-8.8-7-13.4
		c-1.6-3.9-3-7.8-4-11.9c-1-3.9-1.8-7.8-2.2-11.7c-0.2-2.3-0.5-4.5-0.6-6.8c0-0.2-0.1-0.4-0.2-0.6C8.6,101.4,8.6,98.6,8.6,95.9z
		 M183.7,104.6c0-26.7-8.7-48-24.5-63.6c-16.2-16-35.8-24.3-58.6-24.5c-23.1-0.2-43,8-59.4,24.2c-16.3,16.2-24.6,36-24.7,58.9
		c-0.1,23.2,8.1,43.1,24.5,59.5c16.2,16.2,36.1,24.5,59,24.5c22.9,0,42.7-8.2,59-24.3C175.4,143.1,183.4,123.2,183.7,104.6z"/>
	<path class="st0" d="M73.5,85.6c0.1-0.2,0.1-0.3,0.2-0.4c1.7-2.4,3.3-4.8,5-7.1c1.2-1.7,2.3-3.4,3.5-5c2.4-3.4,4.8-6.7,7.2-10.1
		c1.2-1.6,2.3-3.3,3.4-4.9c2-2.9,4.1-5.8,6.1-8.7c1.9-2.7,3.8-5.5,5.7-8.2c0.6-0.9,1.3-1.7,1.9-2.6c1-1.3,2.4-2.1,3.9-2.5
		c0.6-0.2,1.2-0.2,1.8-0.2c4.2,0,8.4,0,12.6,0c1.1,0,2.2,0.2,3.3,0.3c1.1,0.1,2.2,0.3,3.3,0.6c1.1,0.3,2.2,0.6,3.2,0.9
		c1.3,0.5,2.7,1,3.9,1.6c1.9,0.9,3.6,1.9,5.3,3.2c2.1,1.5,4,3.3,5.8,5.2c0.8,0.8,1.4,1.7,2.1,2.6c1.4,1.9,2.7,3.9,3.6,6.1
		c0.9,2,1.7,4,2.2,6.2c0.4,1.6,0.7,3.3,1,4.9c0.3,2,0.3,4,0.2,6c-0.1,1.7-0.4,3.3-0.7,5c-0.5,2.5-1.3,4.9-2.3,7.3
		c-1.1,2.6-2.5,5-4.1,7.2c-1.5,2-3.2,3.8-5,5.4c-2.3,2-4.7,3.7-7.4,5c-0.9,0.4-1.8,0.9-2.8,1.4c0.7,1.1,1.5,2.2,2.2,3.3
		c0.8,1.1,1.6,2.3,2.4,3.4c2,2.9,4.1,5.7,6.1,8.6c2.2,3.1,4.3,6.1,6.5,9.2c2.2,3.1,4.3,6.1,6.5,9.2c0.5,0.8,1.1,1.5,1.7,2.4
		c-3,4.5-6.4,8.7-10.4,12.4c-0.2-0.2-0.4-0.3-0.6-0.5c-1.5-2.2-3-4.4-4.6-6.6c-2-2.9-4.1-5.8-6.1-8.7c-1.5-2.1-2.9-4.2-4.4-6.3
		c-1.7-2.4-3.5-4.8-5.2-7.2c-1.2-1.6-2.3-3.3-3.4-4.9c-2.1-3.1-4.3-6.1-6.5-9.2c-1.4-1.9-2.7-3.9-4-5.8c-1.1-1.5-1.6-3.2-1.4-5
		c0.2-2.3,1.2-4.2,3-5.7c0.9-0.8,2-1.3,3.2-1.5c0.1,0,0.2-0.1,0.4-0.1c1.1-0.1,2.3-0.1,3.4-0.2c1-0.1,1.9-0.2,2.9-0.5
		c1.6-0.4,3.2-1,4.7-1.8c1.4-0.8,2.7-1.7,3.9-2.8c1.2-1.1,2.2-2.3,3.1-3.7c1.3-2,2.2-4.1,2.8-6.4c0.4-1.8,0.7-3.7,0.6-5.6
		c-0.1-1.1-0.3-2.2-0.5-3.2c-0.5-2.9-1.8-5.4-3.5-7.7c-1.1-1.5-2.4-2.9-4-4c-1.8-1.3-3.7-2.4-5.8-3.1c-1-0.3-2.1-0.6-3.2-0.7
		c-3.1-0.5-6.2-0.3-9.3-0.3c0,0-0.1,0-0.2,0.1c-0.9,1.2-1.8,2.6-2.7,3.9c-2,2.9-4.1,5.7-6.1,8.6c-1.9,2.7-3.8,5.5-5.8,8.3
		c-1.3,1.9-2.7,3.7-4,5.6c-2.3,3.3-4.7,6.6-7,9.9c-1.1,1.5-2.1,3.1-3.2,4.6c-1.5,2.1-3,4.3-4.5,6.4c-0.1,0.2-0.2,0.4-0.3,0.6
		c1.4,1.9,2.6,3.8,3.9,5.6c0.9,1.2,1.8,2.4,2.6,3.6c0.9,1.2,1.7,2.5,2.5,3.7c1.9,2.7,3.8,5.4,5.8,8.1c0.7,1,1.4,2,2.1,3
		c2,2.9,4,5.7,6,8.6c2.1,2.9,4.1,5.9,6.1,8.8c1.7,2.4,3.4,4.8,5.1,7.2c1,1.4,1.9,2.8,2.8,4.2c1,1.7,2.3,3.2,3.4,4.8
		c2.2,3.1,4.3,6.1,6.5,9.2c0.2,0.3,0.4,0.6,0.6,1c-5,2.3-10.2,4-15.7,5.1c-0.7-1-1.4-1.9-2.1-2.9c-1.5-2.2-3-4.4-4.6-6.6
		c-2.2-3.1-4.3-6.2-6.5-9.3c-1.3-1.8-2.7-3.6-3.9-5.5c-1.3-2.2-2.9-4.3-4.4-6.4c-1.8-2.7-3.8-5.4-5.7-8.1c-2.1-3-4.1-5.9-6.2-8.9
		c-1.5-2.2-3.1-4.4-4.6-6.6c-1.1-1.5-2.1-3.1-3.2-4.6c-0.1-0.1-0.2-0.2-0.3-0.3c-0.1,0.2-0.3,0.3-0.4,0.5c-1.2,1.8-2.4,3.5-3.6,5.3
		c-1.9,2.7-3.9,5.5-5.8,8.2c-1.9,2.7-3.8,5.5-5.7,8.2c-1.4,2-2.7,3.9-4.1,5.9c-1.9,2.7-3.9,5.5-5.8,8.2c-0.4,0.5-0.7,1-1.2,1.7
		c-1-1.1-1.9-2.1-2.8-3.1c-2.2-2.6-4.3-5.4-6.2-8.3c-0.2-0.4-0.5-0.8-0.7-1.2c-0.1-0.2-0.2-0.5-0.2-0.7c0.9-1.3,1.7-2.5,2.6-3.7
		c2-2.9,4.1-5.7,6.1-8.6c1.9-2.7,3.8-5.5,5.7-8.2c1.8-2.6,3.7-5.3,5.6-7.9c1.9-2.7,3.8-5.4,5.8-8.1c0.3-0.5,0.7-0.9,1-1.4
		c0.1-0.2,0.1-0.4,0.2-0.5c-1.4-2.1-2.8-4.1-4.2-6.1c-1.9-2.7-3.9-5.4-5.8-8.1c-1.9-2.7-3.8-5.5-5.8-8.3c-1.4-2-2.7-3.9-4.1-5.9
		c-1.9-2.7-3.9-5.5-5.8-8.2c-0.3-0.4-0.5-0.8-0.7-1.2c1.4-2.8,7.1-10.3,10.1-12.9c0.5,0.7,1,1.3,1.4,2c2,2.8,3.9,5.7,5.9,8.5
		c1.7,2.4,3.3,4.7,5,7c1.9,2.7,3.7,5.4,5.6,8c1.7,2.4,3.3,4.8,5,7.1c0.9,1.3,1.9,2.7,2.8,4C73.2,85.4,73.3,85.4,73.5,85.6z"/>
</g>
</svg>
